<svg width="17" height="17" viewBox="0 0 17 17" fill="none" xmlns="http://www.w3.org/2000/svg">
<g opacity="0.5">
<path fill-rule="evenodd" clip-rule="evenodd" d="M8.5 6.18182C7.2197 6.18182 6.18182 7.2197 6.18182 8.5C6.18182 9.7803 7.2197 10.8182 8.5 10.8182C9.7803 10.8182 10.8182 9.7803 10.8182 8.5C10.8182 7.2197 9.7803 6.18182 8.5 6.18182ZM7.72727 8.5C7.72727 8.92676 8.07323 9.27273 8.5 9.27273C8.92676 9.27273 9.27273 8.92676 9.27273 8.5C9.27273 8.07323 8.92676 7.72727 8.5 7.72727C8.07323 7.72727 7.72727 8.07323 7.72727 8.5Z" fill="black"/>
<path d="M3.09091 8.5C3.09091 5.51264 5.51264 3.09091 8.5 3.09091V4.63636C6.36617 4.63636 4.63636 6.36617 4.63636 8.5H3.09091Z" fill="black"/>
<path d="M8.5 12.3636C10.6338 12.3636 12.3636 10.6338 12.3636 8.5H13.9091C13.9091 11.4874 11.4874 13.9091 8.5 13.9091V12.3636Z" fill="black"/>
<path fill-rule="evenodd" clip-rule="evenodd" d="M8.5 0C3.80558 0 0 3.80558 0 8.5C0 13.1944 3.80558 17 8.5 17C13.1944 17 17 13.1944 17 8.5C17 3.80558 13.1944 0 8.5 0ZM1.54545 8.5C1.54545 12.3409 4.65911 15.4545 8.5 15.4545C12.3409 15.4545 15.4545 12.3409 15.4545 8.5C15.4545 4.65911 12.3409 1.54545 8.5 1.54545C4.65911 1.54545 1.54545 4.65911 1.54545 8.5Z" fill="black"/>
</g>
</svg>
