<svg width="19" height="12" viewBox="0 0 19 12" fill="none" xmlns="http://www.w3.org/2000/svg">
<g opacity="0.5">
<path d="M12.2467 4.98187C11.9375 4.67271 11.4362 4.67271 11.1271 4.98187C10.8179 5.29104 10.8179 5.79229 11.1271 6.10146C11.4362 6.41062 11.9375 6.41062 12.2467 6.10146C12.5558 5.79229 12.5558 5.29104 12.2467 4.98187Z" fill="black"/>
<path d="M12.8065 3.30248C13.1156 2.99332 13.6169 2.99332 13.9261 3.30248C14.2352 3.61165 14.2352 4.1129 13.9261 4.42207C13.6169 4.73123 13.1156 4.73123 12.8065 4.42207C12.4973 4.1129 12.4973 3.61165 12.8065 3.30248Z" fill="black"/>
<path d="M15.6054 4.98187C15.2963 4.67271 14.795 4.67271 14.4859 4.98187C14.1767 5.29104 14.1767 5.79229 14.4859 6.10146C14.795 6.41062 15.2963 6.41062 15.6054 6.10146C15.9146 5.79229 15.9146 5.29104 15.6054 4.98187Z" fill="black"/>
<path d="M12.8065 6.66127C13.1156 6.3521 13.6169 6.3521 13.9261 6.66127C14.2352 6.97043 14.2352 7.47169 13.9261 7.78085C13.6169 8.09002 13.1156 8.09002 12.8065 7.78085C12.4973 7.47169 12.4973 6.97043 12.8065 6.66127Z" fill="black"/>
<path d="M4.75 6.33333H3.16667V4.75H4.75V3.16667H6.33333V4.75H7.91667V6.33333H6.33333V7.91667H4.75V6.33333Z" fill="black"/>
<path fill-rule="evenodd" clip-rule="evenodd" d="M5.54167 0C2.48109 0 0 2.48109 0 5.54167C0 8.60224 2.48109 11.0833 5.54167 11.0833H13.4583C16.5189 11.0833 19 8.60224 19 5.54167C19 2.48109 16.5189 0 13.4583 0H5.54167ZM13.4583 1.58333H5.54167C3.35554 1.58333 1.58333 3.35554 1.58333 5.54167C1.58333 7.72779 3.35554 9.5 5.54167 9.5H13.4583C15.6445 9.5 17.4167 7.72779 17.4167 5.54167C17.4167 3.35554 15.6445 1.58333 13.4583 1.58333Z" fill="black"/>
</g>
</svg>
