<svg width="10" height="18" viewBox="0 0 10 18" fill="none" xmlns="http://www.w3.org/2000/svg">
<g opacity="0.5">
<path fill-rule="evenodd" clip-rule="evenodd" d="M2.45455 2.45455C2.45455 1.09894 3.55348 0 4.90909 0C6.2647 0 7.36364 1.09894 7.36364 2.45455V9C7.36364 10.3556 6.2647 11.4545 4.90909 11.4545C3.55348 11.4545 2.45455 10.3556 2.45455 9V2.45455ZM5.72727 2.45455V9C5.72727 9.45187 5.36096 9.81818 4.90909 9.81818C4.45722 9.81818 4.09091 9.45187 4.09091 9V2.45455C4.09091 2.00268 4.45722 1.63636 4.90909 1.63636C5.36096 1.63636 5.72727 2.00268 5.72727 2.45455Z" fill="black"/>
<path d="M9.81818 9C9.81818 11.4325 8.04904 13.4517 5.72727 13.8412V16.3636H9V18H0.818182V16.3636H4.09091V13.8412C1.76914 13.4517 0 11.4325 0 9V6.54545H1.63636V9C1.63636 10.8075 3.10161 12.2727 4.90909 12.2727C6.71657 12.2727 8.18182 10.8075 8.18182 9V6.54545H9.81818V9Z" fill="black"/>
</g>
</svg>
