<svg width="15" height="17" viewBox="0 0 15 17" fill="none" xmlns="http://www.w3.org/2000/svg">
<path opacity="0.5" fill-rule="evenodd" clip-rule="evenodd" d="M7.02683 6.10842L11.9765 5.11848C13.1843 4.87693 14.0537 3.81646 14.0537 2.58477C14.0537 0.954213 12.5619 -0.268723 10.963 0.0510554L7.3884 0.765979C6.15671 1.01232 5.27012 2.09379 5.27012 3.34987V10.4432C4.75334 10.1443 4.15336 9.97317 3.51341 9.97317C1.57301 9.97317 0 11.5462 0 13.4866C0 15.427 1.57301 17 3.51341 17C5.45382 17 7.02683 15.427 7.02683 13.4866V6.10842ZM11.3075 1.77365L7.73292 2.48857C7.32236 2.57069 7.02683 2.93117 7.02683 3.34987V4.31692L11.632 3.39589C12.0186 3.31856 12.2969 2.97907 12.2969 2.58477C12.2969 2.06278 11.8194 1.67128 11.3075 1.77365ZM5.27012 13.4866C5.27012 12.5164 4.48362 11.7299 3.51341 11.7299C2.54321 11.7299 1.75671 12.5164 1.75671 13.4866C1.75671 14.4568 2.54321 15.2433 3.51341 15.2433C4.48362 15.2433 5.27012 14.4568 5.27012 13.4866Z" fill="black"/>
</svg>
