<svg width="17" height="14" viewBox="0 0 17 14" fill="none" xmlns="http://www.w3.org/2000/svg">
<path opacity="0.5" fill-rule="evenodd" clip-rule="evenodd" d="M2.31818 1.54545H6.18182C7.03535 1.54545 7.72727 2.23738 7.72727 3.09091V10.0455C7.72727 10.4722 7.38131 10.8182 6.95455 10.8182H2.31818C1.89142 10.8182 1.54545 10.4722 1.54545 10.0455V2.31818C1.54545 1.89142 1.89142 1.54545 2.31818 1.54545ZM10.0455 12.3636C9.77451 12.3636 9.51442 12.3172 9.27273 12.2317V12.3636C9.27273 12.7904 8.92677 13.1364 8.5 13.1364C8.07323 13.1364 7.72727 12.7904 7.72727 12.3636V12.2317C7.48558 12.3172 7.22549 12.3636 6.95455 12.3636H2.31818C1.03789 12.3636 0 11.3258 0 10.0455V2.31818C0 1.03789 1.03789 0 2.31818 0H6.18182C7.10499 0 7.93363 0.40472 8.5 1.04641C9.06637 0.40472 9.89501 0 10.8182 0H14.6818C15.9621 0 17 1.03789 17 2.31818V10.0455C17 11.3258 15.9621 12.3636 14.6818 12.3636H10.0455ZM9.27273 3.09091V10.0455C9.27273 10.4722 9.61869 10.8182 10.0455 10.8182H14.6818C15.1086 10.8182 15.4545 10.4722 15.4545 10.0455V2.31818C15.4545 1.89142 15.1086 1.54545 14.6818 1.54545H10.8182C9.96465 1.54545 9.27273 2.23738 9.27273 3.09091ZM3.09091 3.09091H6.18182V4.63636H3.09091V3.09091ZM10.8182 3.09091H13.9091V4.63636H10.8182V3.09091ZM13.9091 5.40909H10.8182V6.95455H13.9091V5.40909ZM3.09091 5.40909H6.18182V6.95455H3.09091V5.40909ZM13.9091 7.72727H10.8182V9.27273H13.9091V7.72727ZM3.09091 7.72727H6.18182V9.27273H3.09091V7.72727Z" fill="black"/>
</svg>
