<svg width="17" height="17" viewBox="0 0 17 17" fill="none" xmlns="http://www.w3.org/2000/svg">
<g opacity="0.5">
<path d="M6.8 4.25H8.5V8.5H12.75V10.2H6.8V4.25Z" fill="black"/>
<path fill-rule="evenodd" clip-rule="evenodd" d="M17 8.5C17 13.1944 13.1944 17 8.5 17C3.80558 17 0 13.1944 0 8.5C0 3.80558 3.80558 0 8.5 0C13.1944 0 17 3.80558 17 8.5ZM15.3 8.5C15.3 12.2555 12.2555 15.3 8.5 15.3C4.74446 15.3 1.7 12.2555 1.7 8.5C1.7 4.74446 4.74446 1.7 8.5 1.7C12.2555 1.7 15.3 4.74446 15.3 8.5Z" fill="black"/>
</g>
</svg>
