<svg width="16" height="15" viewBox="0 0 16 15" fill="none" xmlns="http://www.w3.org/2000/svg">
<path opacity="0.5" fill-rule="evenodd" clip-rule="evenodd" d="M12.3529 2.64706C12.3529 1.18513 11.1678 0 9.70588 0H6.17647C4.71454 0 3.52941 1.18513 3.52941 2.64706H2.64706C1.18513 2.64706 0 3.83219 0 5.29412V12.3529C0 13.8149 1.18513 15 2.64706 15H13.2353C14.6972 15 15.8824 13.8149 15.8824 12.3529V5.29412C15.8824 3.83219 14.6972 2.64706 13.2353 2.64706H12.3529ZM9.70588 1.76471H6.17647C5.68916 1.76471 5.29412 2.15975 5.29412 2.64706H10.5882C10.5882 2.15975 10.1932 1.76471 9.70588 1.76471ZM2.64706 4.41176H13.2353C13.7226 4.41176 14.1176 4.80681 14.1176 5.29412V12.3529C14.1176 12.8403 13.7226 13.2353 13.2353 13.2353H2.64706C2.15975 13.2353 1.76471 12.8403 1.76471 12.3529V5.29412C1.76471 4.80681 2.15975 4.41176 2.64706 4.41176Z" fill="black"/>
</svg>
