<svg width="128" height="128" viewBox="0 0 128 128" fill="none" xmlns="http://www.w3.org/2000/svg">
<path d="M27.3 43L16 47V107L64 124L112 107V47L100.7 43C77 34.6 51 34.6 27.3 43Z" fill="white"/>
<path d="M49.0004 1C47.9395 1 46.9221 1.42143 46.172 2.17157C45.4218 2.92172 45.0004 3.93913 45.0004 5C45.0004 6.06087 45.4218 7.07828 46.172 7.82843C46.9221 8.57857 47.9395 9 49.0004 9C50.0613 9 51.0787 8.57857 51.8288 7.82843C52.579 7.07828 53.0004 6.06087 53.0004 5C53.0004 3.93913 52.579 2.92172 51.8288 2.17157C51.0787 1.42143 50.0613 1 49.0004 1ZM79.0004 1C77.9395 1 76.9221 1.42143 76.172 2.17157C75.4218 2.92172 75.0004 3.93913 75.0004 5C75.0004 6.06087 75.4218 7.07828 76.172 7.82843C76.9221 8.57857 77.9395 9 79.0004 9C80.0613 9 81.0787 8.57857 81.8288 7.82843C82.579 7.07828 83.0004 6.06087 83.0004 5C83.0004 3.93913 82.579 2.92172 81.8288 2.17157C81.0787 1.42143 80.0613 1 79.0004 1ZM64.0004 36.6C52.6004 36.6 42.3004 30.8 36.4004 21C35.5004 19.6 36.0004 17.7 37.4004 16.9C38.8004 16 40.7004 16.5 41.5004 17.9C46.3004 25.8 54.7004 30.6 63.9004 30.6C73.2004 30.6 81.5004 25.9 86.3004 17.9C87.2004 16.5 89.0004 16 90.4004 16.9C91.8004 17.8 92.3004 19.6 91.4004 21C85.7004 30.8 75.4004 36.6 64.0004 36.6ZM64.0004 67C62.8004 67 61.6004 66.2 61.2004 65C60.6004 63.4 61.5004 61.7 63.0004 61.2L111 44.2C112.6 43.6 114.3 44.5 114.8 46C115.4 47.6 114.5 49.3 113 49.8L65.0004 66.8C64.7004 66.9 64.3004 67 64.0004 67Z" fill="#5B97EB"/>
<path d="M64 64L16 47L64 64Z" fill="white"/>
<path d="M114.9 46.3001C114.9 46.2001 114.9 46.2001 114.8 46.1001C114.8 45.9001 114.7 45.8001 114.6 45.7001C114.6 45.6001 114.5 45.6001 114.5 45.5001C114.4 45.4001 114.3 45.2001 114.3 45.1001C114.3 45.0001 114.2 45.0001 114.2 44.9001C114.1 44.8001 114 44.7001 113.8 44.6001L113.7 44.5001C113.5 44.4001 113.3 44.3001 113.1 44.2001H113C112.8 44.1001 112.7 44.1001 112.5 44.1001C112.4 44.1001 112.3 44.1001 112.3 44.1001C112.2 44.1001 112.1 44.1001 112 44.1001C111.9 44.1001 111.9 44.1001 111.8 44.1001C111.7 44.1001 111.6 44.1001 111.6 44.1001C111.4 44.1001 111.3 44.2001 111.2 44.2001H111.1L63.0996 61.2001C61.8996 61.6001 61.0996 62.8001 61.0996 64.0001V95.7001V119.8L19.0996 104.9V84.0001C19.0996 82.3001 17.7996 81.0001 16.0996 81.0001C14.3996 81.0001 13.0996 82.3001 13.0996 84.0001V107C13.0996 108.3 13.8996 109.4 15.0996 109.8L63.0996 126.8C63.3996 126.9 63.6996 127 64.0996 127C64.3996 127 64.7996 126.9 65.0996 126.8L113.1 109.8C114.3 109.4 115.1 108.2 115.1 107V47.0001C115 46.8001 115 46.5001 114.9 46.3001Z" fill="#5B97EB"/>
<path d="M16 47L4 67L52 84L64 64L16 47ZM124 67L76 84L64 64L112 47L124 67Z" fill="white"/>
<path d="M126.6 65.5001L114.6 45.5001C114.2 44.9001 113.7 44.4001 113 44.2001L92.9998 37.1001C91.3998 36.5001 89.6998 37.4001 89.1998 38.9001C88.5998 40.5001 89.4998 42.2001 90.9998 42.7001L103 47.0001L63.9998 60.8001L24.9998 47.0001L36.9998 42.7001C38.5998 42.1001 39.3998 40.4001 38.7998 38.9001C38.1998 37.3001 36.4998 36.5001 34.9998 37.1001L14.9998 44.2001C14.3998 44.4001 13.7998 44.9001 13.3998 45.5001L1.39982 65.5001C0.999824 66.2001 0.899824 67.2001 1.19982 68.0001C1.49982 68.8001 2.19982 69.5001 2.99982 69.8001L50.9998 86.8001C51.2998 86.9001 51.6998 87.0001 51.9998 87.0001C52.9998 87.0001 53.9998 86.5001 54.5998 85.5001L63.9998 69.8001L73.3998 85.5001C73.9998 86.5001 74.9998 87.0001 75.9998 87.0001C76.2998 87.0001 76.6998 86.9001 76.9998 86.8001L125 69.8001C125.8 69.5001 126.5 68.8001 126.8 68.0001C127.1 67.2001 127 66.2001 126.6 65.5001ZM50.6998 80.4001L8.49982 65.4001L17.3998 50.6001L59.5998 65.6001L50.6998 80.4001ZM77.2998 80.4001L68.3998 65.6001L110.6 50.6001L119.5 65.4001L77.2998 80.4001Z" fill="#5B97EB"/>
</svg>
