<svg width="144" height="110" viewBox="0 0 144 110" fill="none" xmlns="http://www.w3.org/2000/svg">
<path d="M69.3475 83.6958H54.9997C53.6791 83.6958 52.6084 84.7665 52.6084 86.0871V98.0436C52.6084 99.3642 53.6791 100.435 54.9997 100.435H69.3475C70.6681 100.435 71.7388 99.3642 71.7388 98.0436V86.0871C71.7388 84.7665 70.6681 83.6958 69.3475 83.6958ZM66.9562 95.6523H57.391V88.4784H66.9562V95.6523Z" fill="#5B97EB"/>
<path d="M119.565 86.0869H114.782V90.8695H119.565V86.0869Z" fill="#5B97EB"/>
<path d="M133.913 86.0869H124.348V90.8695H133.913V86.0869Z" fill="#5B97EB"/>
<path d="M133.913 95.6523H114.782V100.435H133.913V95.6523Z" fill="#5B97EB"/>
<path d="M143.462 21.4356C143.451 21.184 143.401 20.9353 143.313 20.6991C143.292 20.6465 143.28 20.5915 143.256 20.5413C143.232 20.4911 143.242 20.4815 143.227 20.4528L133.662 1.32239C133.257 0.511739 132.428 -0.000298782 131.522 1.30802e-07H55C54.0937 -0.000298782 53.2648 0.511739 52.8598 1.32239L43.2946 20.4528C43.2802 20.4815 43.2778 20.5126 43.2635 20.5413C43.2491 20.57 43.23 20.6465 43.2085 20.6991C43.1203 20.9353 43.0704 21.184 43.0602 21.4356C43.0602 21.4643 43.0435 21.4907 43.0435 21.5217V33.4783H0V38.2609H43.0435V43.0435H9.56522V47.8261H43.0435V107.609C43.0435 108.929 44.1142 110 45.4348 110H141.087C142.408 110 143.478 108.929 143.478 107.609V21.5217C143.478 21.4907 143.462 21.4667 143.462 21.4356ZM130.044 4.78261L137.218 19.1304H104.935L103.142 4.78261H130.044ZM88.1985 4.78261H98.3233L100.117 19.1304H86.405L88.1985 4.78261ZM86.087 23.913H100.435V52.6087H86.087V23.913ZM56.4754 4.78261H83.3776L81.5841 19.1304H49.3015L56.4754 4.78261ZM138.696 105.217H47.8261V47.8261H62.1739V43.0435H47.8261V38.2609H62.1739V33.4783H47.8261V23.913H81.3044V55C81.3044 56.3206 82.3751 57.3913 83.6957 57.3913H102.826C104.147 57.3913 105.217 56.3206 105.217 55V23.913H138.696V105.217Z" fill="#5B97EB"/>
<path d="M38.2609 74.1304H0V78.913H38.2609V74.1304Z" fill="#5B97EB"/>
<path d="M38.2601 83.6958H9.56445V88.4784H38.2601V83.6958Z" fill="#5B97EB"/>
</svg>
