<svg width="128" height="128" viewBox="0 0 128 128" fill="none" xmlns="http://www.w3.org/2000/svg">
<g clip-path="url(#clip0)">
<path d="M74.1596 3.11998C73.6796 3.20998 73.2396 3.42998 72.8796 3.75998L62.0796 13.04L58.3996 8.95998C57.8996 8.37998 57.1596 8.05998 56.3996 8.07998C55.7596 8.12998 55.1596 8.40998 54.7196 8.87998L48.3196 15.36H39.5996C39.5196 15.36 39.4396 15.36 39.3596 15.36C39.2796 15.36 39.1996 15.36 39.1196 15.36C38.7096 15.45 38.3196 15.64 37.9996 15.92L11.9996 35.92L11.8396 36C11.8096 36.03 11.7896 36.05 11.7596 36.08C11.7296 36.08 11.7096 36.08 11.6796 36.08C11.5696 36.13 11.4596 36.18 11.3596 36.24C11.3296 36.27 11.3096 36.29 11.2796 36.32C11.2196 36.37 11.1696 36.42 11.1196 36.48C11.0296 36.55 10.9496 36.63 10.8796 36.72C10.7896 36.82 10.7096 36.93 10.6396 37.04C10.6096 37.09 10.5796 37.15 10.5596 37.2C10.5296 37.23 10.5096 37.25 10.4796 37.28C10.4196 37.41 10.3596 37.54 10.3196 37.68L0.239584 57.76C-0.260417 58.75 -0.0704156 59.94 0.709585 60.73C1.49959 61.51 2.68958 61.7 3.67958 61.2L10.2396 57.92V110.08C10.2396 111.49 11.3896 112.64 12.7996 112.64H89.5996C89.6296 112.64 89.6496 112.64 89.6796 112.64C89.8396 112.63 89.9996 112.6 90.1596 112.56C90.2396 112.54 90.3196 112.51 90.3996 112.48C91.0396 112.29 91.5896 111.86 91.9196 111.28L112.08 86.08C112.44 85.63 112.64 85.06 112.64 84.48V60L127.28 45.36C128.09 44.51 128.22 43.23 127.6 42.24L112.72 17.44C112.7 17.36 112.67 17.28 112.64 17.2C112.53 16.84 112.33 16.52 112.08 16.24C112.06 16.19 112.03 16.13 112 16.08C111.97 16.08 111.95 16.08 111.92 16.08C111.9 16.03 111.87 15.97 111.84 15.92C111.81 15.92 111.79 15.92 111.76 15.92C111.71 15.89 111.65 15.86 111.6 15.84C111.6 15.81 111.6 15.79 111.6 15.76C111.57 15.76 111.55 15.76 111.52 15.76C111.39 15.67 111.26 15.59 111.12 15.52C111.09 15.52 111.07 15.52 111.04 15.52C110.99 15.49 110.93 15.46 110.88 15.44C110.85 15.44 110.83 15.44 110.8 15.44C110.75 15.41 110.69 15.38 110.64 15.36C110.61 15.36 110.59 15.36 110.56 15.36C110.51 15.36 110.45 15.36 110.4 15.36C110.37 15.36 110.35 15.36 110.32 15.36C110.27 15.36 110.21 15.36 110.16 15.36C110.13 15.36 110.11 15.36 110.08 15.36H109.92C109.87 15.36 109.81 15.36 109.76 15.36H87.1196L76.3996 3.99998C75.9496 3.47998 75.3196 3.16998 74.6396 3.11998C74.4796 3.09998 74.3196 3.09998 74.1596 3.11998ZM74.3996 9.19998L94.1596 30.16L88.4796 35.84H82.3196C82.2496 35.75 82.1696 35.67 82.0796 35.6L65.4396 16.88L74.3996 9.19998ZM56.3996 14.4L75.5196 35.84H35.4396L56.3996 14.4ZM40.3996 20.48H43.3596L28.2396 35.84H20.3196L40.3996 20.48ZM91.9196 20.48H103.84L97.6796 26.64L91.9196 20.48ZM109.6 22.08L122.24 43.04L105.44 59.84L92.7996 38.88L109.6 22.08ZM15.3596 40.96H87.0396V107.52H15.3596V54.08C15.3696 53.97 15.3696 53.87 15.3596 53.76V40.96ZM92.1596 47.52L102.8 65.28C103.19 65.96 103.88 66.43 104.66 66.54C105.44 66.65 106.23 66.39 106.8 65.84L107.52 65.12V83.6L92.1596 102.8V47.52ZM10.2396 49.28V52.16L8.31958 53.12L10.2396 49.28ZM37.6796 51.2C36.2696 51.4 35.2796 52.71 35.4796 54.12C35.6796 55.53 36.9896 56.52 38.3996 56.32H63.9996C64.9196 56.33 65.7796 55.85 66.2496 55.05C66.7096 54.25 66.7096 53.27 66.2496 52.47C65.7796 51.67 64.9196 51.19 63.9996 51.2H38.3996C38.3196 51.2 38.2396 51.2 38.1596 51.2C38.0796 51.2 37.9996 51.2 37.9196 51.2C37.8396 51.2 37.7596 51.2 37.6796 51.2Z" fill="#5B97EB"/>
</g>
<defs>
<clipPath id="clip0">
<rect width="128" height="128" fill="white"/>
</clipPath>
</defs>
</svg>
