<svg width="128" height="128" viewBox="0 0 128 128" fill="none" xmlns="http://www.w3.org/2000/svg">
<path d="M64.1001 5.11995C63.7771 5.10788 63.4548 5.15708 63.1501 5.26495L19.9051 20.53C19.2647 20.6688 18.7019 21.048 18.3326 21.5893C17.9633 22.1307 17.8157 22.793 17.9201 23.44V44.295L16.2451 43.68C15.9238 43.5616 15.5821 43.5089 15.2401 43.525C14.8269 43.5445 14.4245 43.6638 14.0675 43.8728C13.7105 44.0818 13.4094 44.3742 13.1901 44.725L0.390084 65.205C0.189173 65.5275 0.0625712 65.8907 0.019461 66.2682C-0.0236492 66.6457 0.0178138 67.0281 0.140842 67.3876C0.26387 67.7471 0.465379 68.0747 0.730749 68.3467C0.99612 68.6187 1.3187 68.8281 1.67508 68.9599L12.8001 73.06V102.4C12.8006 102.923 12.9614 103.434 13.2608 103.863C13.5603 104.292 13.9841 104.619 14.4751 104.8L63.1151 122.72C63.6863 122.93 64.3138 122.93 64.8851 122.72L113.525 104.8C114.016 104.619 114.44 104.292 114.739 103.863C115.039 103.434 115.2 102.923 115.2 102.4V73.06L126.325 68.9599C126.681 68.8281 127.004 68.6187 127.269 68.3467C127.535 68.0747 127.736 67.7471 127.859 67.3876C127.982 67.0281 128.024 66.6457 127.981 66.2682C127.938 65.8907 127.811 65.5275 127.61 65.205L114.81 44.725C114.583 44.3608 114.268 44.0597 113.894 43.8491C113.52 43.6385 113.099 43.5254 112.67 43.52C112.358 43.517 112.048 43.5713 111.755 43.68L110.08 44.295V23.26C110.132 22.6637 109.973 22.0681 109.632 21.5767C109.29 21.0853 108.787 20.7291 108.21 20.57L64.8501 5.26495C64.6087 5.17938 64.3559 5.1305 64.1001 5.11995ZM64.0001 10.3949L99.8301 23.0399L64.0001 35.685L28.1701 23.0399L64.0001 10.3949ZM23.0401 26.6599L61.4401 40.2099V60.3299L23.0351 46.18C23.0374 46.1467 23.0391 46.1133 23.0401 46.0799V26.6599ZM104.96 26.6599V46.0799C104.961 46.1133 104.963 46.1467 104.965 46.18L66.5601 60.3299V40.2099L104.96 26.6599ZM16.4301 49.2L60.1651 65.31L50.1351 81.36L6.39508 65.25L16.4301 49.2ZM111.57 49.2L121.605 65.25L77.8651 81.36L67.8351 65.31L111.57 49.2ZM61.4401 72.92V116.645L17.9201 100.615V74.945L50.3151 86.88C50.8669 87.0831 51.4717 87.09 52.0281 86.8997C52.5844 86.7094 53.0583 86.3335 53.3701 85.835L61.4401 72.92ZM66.5601 72.92L74.6301 85.835C74.9419 86.3335 75.4158 86.7094 75.9721 86.8997C76.5284 87.09 77.1333 87.0831 77.6851 86.88L110.08 74.945V100.615L66.5601 116.645V72.92Z" fill="#5B97EB"/>
</svg>
