<svg width="128" height="128" viewBox="0 0 128 128" fill="none" xmlns="http://www.w3.org/2000/svg">
<path d="M12 34L32 14H96L116 34" fill="white"/>
<path d="M116 34H12V114H116V34Z" fill="white"/>
<path d="M118.1 31.9L98.1 11.9C97.6 11.3 96.8 11 96 11H32C31.2 11 30.4 11.3 29.9 11.9L9.9 31.9C9.3 32.4 9 33.2 9 34V114C9 115.7 10.3 117 12 117H116C117.7 117 119 115.7 119 114V34C119 33.2 118.7 32.4 118.1 31.9ZM108.8 31H67V17H94.8L108.8 31ZM33.2 17H61V31H19.2L33.2 17ZM113 111H15V37H113V111Z" fill="#5B97EB"/>
</svg>
