<svg width="128" height="128" viewBox="0 0 128 128" fill="none" xmlns="http://www.w3.org/2000/svg">
<path d="M114.9 33.5C114.9 33.4 114.9 33.4 114.9 33.5C114.9 33.3 114.8 33.2 114.8 33C114.5 32.2 113.8 31.5 113.1 31.2C113.1 31.2 113 31.2 113 31.1L65 14.1C65 14.1 65 14.1 64.9 14.1C64.8 14.1 64.6 14 64.5 14H64.4C64.3 14 64.1 14 64 14C63.9 14 63.9 14 63.8 14C63.7 14 63.6 14 63.5 14C63.3 14 63.1 14.1 63 14.1L15 31.1C13.8 31.5 13 32.7 13 33.9V93.9C13 95.2 13.8 96.3 15 96.7L63 113.7C63.3 113.8 63.7 113.9 64 113.9C64.2 113.9 64.3 113.9 64.5 113.9H64.6C64.7 113.9 64.8 113.8 64.9 113.8L112.9 96.8C114.1 96.4 114.9 95.2 114.9 94V34C114.9 33.9 114.9 33.9 114.9 33.8C115 33.7 115 33.6 114.9 33.5ZM19 36.1L64 20.2L77 24.8L36 39.3C34.8 39.7 34 40.9 34 42.1V52.9C34 54.2 34.8 55.3 36 55.7L42.3 58C43.6 58.5 45 57.5 45 56.1V46.1C45 44.8 45.8 43.7 47 43.3L88.6 28.9L103 34L63 48.2C63 48.2 63 48.2 62.9 48.2C61.8 48.6 61 49.7 61 51V106.8L19 91.9V36.1ZM109 91.9L67 106.8V53.1L109 38.2V91.9Z" fill="#5B97EB"/>
</svg>
