<svg width="122" height="122" viewBox="0 0 122 122" fill="none" xmlns="http://www.w3.org/2000/svg">
<g clip-path="url(#clip0)">
<path d="M30.2475 92.9829H18.5576C17.5704 92.9829 16.7705 93.7828 16.7705 94.77C16.7705 95.7572 17.5704 96.5571 18.5576 96.5571H30.2477C31.2349 96.5571 32.0348 95.7572 32.0348 94.77C32.0348 93.7828 31.2347 92.9829 30.2475 92.9829Z" fill="#5B97EB"/>
<path d="M30.2475 86.979H18.5576C17.5704 86.979 16.7705 87.7789 16.7705 88.7661C16.7705 89.7533 17.5704 90.5532 18.5576 90.5532H30.2477C31.2349 90.5532 32.0348 89.7533 32.0348 88.7661C32.0348 87.7789 31.2347 86.979 30.2475 86.979Z" fill="#5B97EB"/>
<path d="M30.2475 80.9746H18.5576C17.5704 80.9746 16.7705 81.7745 16.7705 82.7617C16.7705 83.7489 17.5704 84.5488 18.5576 84.5488H30.2477C31.2349 84.5488 32.0348 83.7489 32.0348 82.7617C32.0348 81.7745 31.2347 80.9746 30.2475 80.9746Z" fill="#5B97EB"/>
<path d="M80.4205 92.9829H68.7305C67.7433 92.9829 66.9434 93.7828 66.9434 94.77C66.9434 95.7572 67.7433 96.5571 68.7305 96.5571H80.4205C81.4077 96.5571 82.2076 95.7572 82.2076 94.77C82.2076 93.7828 81.4075 92.9829 80.4205 92.9829Z" fill="#5B97EB"/>
<path d="M80.4205 86.979H68.7305C67.7433 86.979 66.9434 87.7789 66.9434 88.7661C66.9434 89.7533 67.7433 90.5532 68.7305 90.5532H80.4205C81.4077 90.5532 82.2076 89.7533 82.2076 88.7661C82.2076 87.7789 81.4075 86.979 80.4205 86.979Z" fill="#5B97EB"/>
<path d="M80.4205 80.9746H68.7305C67.7433 80.9746 66.9434 81.7745 66.9434 82.7617C66.9434 83.7489 67.7433 84.5488 68.7305 84.5488H80.4205C81.4077 84.5488 82.2076 83.7489 82.2076 82.7617C82.2076 81.7745 81.4075 80.9746 80.4205 80.9746Z" fill="#5B97EB"/>
<path d="M55.3336 42.8096H43.6436C42.6564 42.8096 41.8564 43.6097 41.8564 44.5967C41.8564 45.5836 42.6564 46.3838 43.6436 46.3838H55.3336C56.3208 46.3838 57.1207 45.5839 57.1207 44.5967C57.1207 43.6095 56.3206 42.8096 55.3336 42.8096Z" fill="#5B97EB"/>
<path d="M55.3336 36.8052H43.6436C42.6564 36.8052 41.8564 37.6053 41.8564 38.5923C41.8564 39.5792 42.6564 40.3794 43.6436 40.3794H55.3336C56.3208 40.3794 57.1207 39.5792 57.1207 38.5923C57.1207 37.6053 56.3206 36.8052 55.3336 36.8052Z" fill="#5B97EB"/>
<path d="M55.3336 30.8008H43.6436C42.6564 30.8008 41.8564 31.6009 41.8564 32.5879C41.8564 33.5749 42.6564 34.375 43.6436 34.375H55.3336C56.3208 34.375 57.1207 33.5749 57.1207 32.5879C57.1207 31.6009 56.3206 30.8008 55.3336 30.8008Z" fill="#5B97EB"/>
<path d="M118.73 100.518H112.958C113.067 100.114 113.131 99.6912 113.131 99.253V55.1829C113.131 52.5151 110.961 50.3443 108.292 50.3443C105.991 50.3443 90.2252 50.3441 87.8712 50.3441C87.9808 49.9402 88.0447 49.5177 88.0447 49.0795V31.2144C88.0447 30.2275 87.2448 29.4273 86.2576 29.4273C85.2704 29.4273 84.4705 30.2275 84.4705 31.2144V49.0795C84.4705 49.7768 83.9031 50.3441 83.2059 50.3441C82.4634 50.3441 39.8783 50.3441 39.1356 50.3441C38.4383 50.3441 37.871 49.7768 37.871 49.0795V5.00944C37.871 4.31223 38.4383 3.74512 39.1356 3.74512H51.1997V20.9769C51.1997 23.5456 54.0572 25.0601 56.1808 23.6702L61.1706 20.4048L66.1602 23.6702C68.2978 25.0687 71.1413 23.5322 71.1413 20.9769V3.74512H83.2057C83.9029 3.74512 84.4702 4.31223 84.4702 5.00944V22.8748C84.4702 23.8618 85.2701 24.6619 86.2573 24.6619C87.2445 24.6619 88.0444 23.8618 88.0444 22.8748V5.00944C88.0444 2.3414 85.8739 0.170898 83.2057 0.170898C81.5248 0.170898 40.8181 0.170898 39.1353 0.170898C36.4673 0.170898 34.2965 2.3414 34.2965 5.00944V49.0798C34.2965 49.5177 34.3602 49.9405 34.47 50.3443C33.8526 50.3443 26.3916 50.3446 14.0486 50.3446C11.3806 50.3446 9.20981 52.5151 9.20981 55.1831V99.2532C9.20981 99.6914 9.27367 100.114 9.38328 100.518H3.61091C1.61984 100.518 0 102.138 0 104.129V109.166C0 111.157 1.61984 112.777 3.61091 112.777H6.57227V118.427C6.57227 120.491 8.25192 122.171 10.3164 122.171H15.7959C17.8604 122.171 19.54 120.491 19.54 118.427V112.777H54.687V118.427C54.687 120.491 56.3666 122.171 58.4311 122.171H63.9106C65.9748 122.171 67.6545 120.491 67.6545 118.427V112.777H81.058C82.0452 112.777 82.8452 111.977 82.8452 110.99C82.8452 110.003 82.0452 109.203 81.058 109.203C77.6666 109.203 6.6876 109.203 3.61115 109.203C3.5909 109.203 3.57446 109.186 3.57446 109.166V104.129C3.57446 104.109 3.5909 104.092 3.61115 104.092H118.731C118.751 104.092 118.767 104.109 118.767 104.129V109.166C118.767 109.186 118.751 109.203 118.731 109.203C117.647 109.203 90.8447 109.203 89.3979 109.203C88.4107 109.203 87.6108 110.003 87.6108 110.99C87.6108 111.977 88.4107 112.777 89.3979 112.777H102.801V118.427C102.801 120.491 104.481 122.171 106.546 122.171H112.025C114.09 122.171 115.769 120.491 115.769 118.427V112.777H118.731C120.722 112.777 122.341 111.157 122.341 109.166V104.129C122.341 102.138 120.722 100.518 118.73 100.518ZM54.7739 3.74512H67.5673V20.3195L62.9332 17.2869C61.8623 16.5863 60.4782 16.5863 59.4083 17.2869L54.7739 20.3195V3.74512ZM58.2612 112.777H64.0803V118.426C64.0803 118.52 64.0042 118.596 63.9106 118.596H58.4311C58.3372 118.596 58.2612 118.52 58.2612 118.426V112.777ZM10.1465 112.777H15.9658V118.426C15.9658 118.52 15.8898 118.596 15.7959 118.596H10.3164C10.2225 118.596 10.1465 118.52 10.1465 118.426V112.777ZM79.8607 53.9188H92.654V70.4932L88.0199 67.4606C86.9493 66.76 85.5658 66.7595 84.495 67.4606L79.8607 70.4932V53.9188ZM29.6875 53.9188H42.4805V70.4932L37.8462 67.4603C36.7756 66.76 35.3922 66.76 34.3216 67.4606L29.6875 70.4932V53.9188ZM59.3837 99.2532C59.3837 99.9388 58.8047 100.518 58.1192 100.518H14.0488C13.3633 100.518 12.7843 99.9388 12.7843 99.2532V55.1831C12.7843 54.4859 13.3516 53.9188 14.0488 53.9188H26.1132V71.1506C26.1132 73.7047 28.9557 75.2428 31.0945 73.8439L36.0839 70.5787L41.0737 73.8441C43.2071 75.2404 46.0545 73.7121 46.0545 71.1506V53.9188H58.1189C58.8162 53.9188 59.3835 54.4859 59.3835 55.1831V99.2532H59.3837ZM109.557 99.2532C109.557 99.9507 108.99 100.518 108.292 100.518H64.2223C63.5251 100.518 62.9577 99.9507 62.9577 99.2532V55.1831C62.9577 54.4859 63.5251 53.9188 64.2223 53.9188H76.2865V71.1506C76.2865 73.7054 79.1296 75.2426 81.2675 73.8439L86.2571 70.5787L91.2469 73.8439C93.3817 75.2409 96.228 73.7109 96.228 71.1506V53.9188H108.292C108.989 53.9188 109.557 54.4859 109.557 55.1831V99.2532H109.557ZM112.195 118.426C112.195 118.52 112.119 118.596 112.025 118.596H106.546C106.452 118.596 106.376 118.52 106.376 118.426V112.777H112.195V118.426Z" fill="#5B97EB"/>
</g>
<defs>
<clipPath id="clip0">
<rect width="122" height="122" fill="white"/>
</clipPath>
</defs>
</svg>
